<?xml version="1.0" encoding="UTF-8" standalone="no" ?>
<!DOCTYPE svg PUBLIC "-//W3C//DTD SVG 1.1//EN" "http://www.w3.org/Graphics/SVG/1.1/DTD/svg11.dtd">
<svg xmlns="http://www.w3.org/2000/svg" xmlns:xlink="http://www.w3.org/1999/xlink" version="1.1" width="640" height="640" viewBox="0 0 640 640" xml:space="preserve">
<desc>Created with Fabric.js 5.3.0</desc>
<defs>
</defs>
<g transform="matrix(0.913803775 0.031910731 -0.031910731 0.913803775 320 320)" id="2Ss6Y0TGXWgD3wNNfd9J-"  >
<path style="stroke: rgb(0,0,0); stroke-width: 0; stroke-dasharray: none; stroke-linecap: butt; stroke-dashoffset: 0; stroke-linejoin: miter; stroke-miterlimit: 4; fill: rgb(67,67,187); fill-rule: nonzero; opacity: 1;" vector-effect="non-scaling-stroke"  transform=" translate(0.000005, -0.0000113679)" d="M 175.1317 89.54773 C 164.44859 123.32978 132.39924 146.56835 132.39924 146.56835 C 132.39924 146.56835 121.34994999999999 212.46585 88.59888 222.60833000000002 C 55.84779999999999 232.75081000000003 28.538279999999993 215.55246000000002 28.538279999999993 215.55246000000002 C 28.538279999999993 215.55246000000002 6.174249999999994 239.44155000000003 -31.303490000000004 227.20667000000003 C -68.78122 214.97179000000003 -80.29839000000001 159.94802000000004 -80.29839000000001 159.94802000000004 C -80.29839000000001 159.94802000000004 -121.18061 139.50281000000004 -136.90902 103.96929000000004 C -152.63743 68.43577000000005 -143.21202 4.744290000000049 -143.21202 4.744290000000049 C -143.21202 4.744290000000049 -179.90383 -46.983939999999954 -193.00892 -80.70801999999995 C -212.02481999999998 -129.64271999999994 -204.79682 -170.65327999999994 -204.79682 -170.65327999999994 C -204.79682 -170.65327999999994 -236.78913 -186.61061999999993 -268.35555 -181.97652999999994 C -299.92198 -177.34244999999993 -331.06253 -152.11694999999995 -331.06253 -152.11694999999995 C -331.06253 -152.11694999999995 -285.02362999999997 -227.46679999999995 -177.41642 -204.49802999999994 C -69.80921 -181.52925999999994 -56.68812999999999 -80.70801999999995 -56.68812999999999 -80.70801999999995 C -56.68812999999999 -80.70801999999995 -13.757259999999988 -91.31388999999994 17.78227000000001 -92.10145999999995 C 49.32179000000001 -92.88902999999995 88.59887 -86.93060999999994 88.59887 -86.93060999999994 C 88.59887 -86.93060999999994 80.32139000000001 -162.69564999999994 163.65179 -211.68871999999993 C 246.98219 -260.6817899999999 331.06252 -199.48001999999994 331.06252 -199.48001999999994 C 331.06252 -199.48001999999994 284.49772 -211.68871999999993 256.59822 -211.68871999999993 C 228.69872000000004 -211.68871999999993 194.10335000000003 -193.90011999999993 194.10335000000003 -193.90011999999993 C 194.10335000000003 -193.90011999999993 208.45069000000004 -149.75216999999992 201.19682000000003 -98.69608999999993 C 193.94295000000002 -47.640009999999926 175.13170000000002 -8.626699999999929 175.13170000000002 -8.626699999999929 C 175.13170000000002 -8.626699999999929 185.81481000000002 55.765700000000066 175.13170000000002 89.54775000000006 z" stroke-linecap="round" />
</g>
<g transform="matrix(1.028687902 0 0 1.028687902 276.0870087374 338.431937698)" id="aSwZ-NyOLTzUJb7zEbIuj"  >
<path style="stroke: rgb(67,67,187); stroke-width: 13; stroke-dasharray: none; stroke-linecap: butt; stroke-dashoffset: 0; stroke-linejoin: miter; stroke-miterlimit: 4; fill: rgb(255,255,255); fill-opacity: 0; fill-rule: nonzero; opacity: 0;" vector-effect="non-scaling-stroke"  transform=" translate(0, 0)" d="M -31.6092 18.40195 C -31.6092 18.40195 -26.789 -17.48162 -1.0744900000000008 -18.38252 C 24.64002 -19.28342 28.52288 11.42917 31.60919 18.40195" stroke-linecap="round" />
</g>
<g transform="matrix(1.028687902 0 0 1.028687902 397.2005222509 334.433521123)" id="6lqIUCDWY9IrU2OXE37Na"  >
<path style="stroke: rgb(67,67,187); stroke-width: 13; stroke-dasharray: none; stroke-linecap: butt; stroke-dashoffset: 0; stroke-linejoin: miter; stroke-miterlimit: 4; fill: rgb(255,255,255); fill-opacity: 0; fill-rule: nonzero; opacity: 0;" vector-effect="non-scaling-stroke"  transform=" translate(0.000005, -0.0000059335)" d="M -31.6092 18.40195 C -31.6092 18.40195 -26.789 -17.48162 -1.0744900000000008 -18.38252 C 24.64002 -19.28342 28.52288 11.42917 31.60919 18.40195" stroke-linecap="round" />
</g>
<g transform="matrix(1.1876479845 0 0 1.0192006922 338.542694331 455.4248154302)" id="D-Ui_9F3_JIXn6bIO9YNF"  >
<path style="stroke: rgb(67,67,187); stroke-width: 6; stroke-dasharray: none; stroke-linecap: butt; stroke-dashoffset: 0; stroke-linejoin: miter; stroke-miterlimit: 4; fill: rgb(67,67,187); fill-rule: nonzero; opacity: 0;" vector-effect="non-scaling-stroke"  transform=" translate(0, 0)" d="M 0.20904 17.01346 C 0.20904 17.01346 -22.29291 -4.12283 -17.60541 -11.488900000000001 C -12.91791 -18.85497 13.57675 -18.85497 17.720800000000004 -11.488900000000001 C 21.864850000000004 -4.122830000000001 0.20904000000000522 17.01346 0.20904000000000522 17.01346 z" stroke-linecap="round" />
</g>
</svg>